<svg width="20" height="22" xmlns="http://www.w3.org/2000/svg" xmlns:xlink="http://www.w3.org/1999/xlink"><defs><path d="M15.46 16.991h1.662c.26 0 .582-.033.746.068.473.29.365 2.24.203 2.856-.087.058-.17.165-.27.204-.425.16-2.18.026-2.544-.068-.066-.102-.2-.222-.237-.34v-2.278c.087-.227.3-.279.44-.442zm8.376 0h2.306c.056.07.093.048.17.102.101.073.15.217.236.306.016.821.24 2.647-.474 2.72-.124.078-.458.034-.644.034-.552 0-1.163.005-1.662-.034a4.395 4.395 0 0 0-.34-.374v-2.346c.068-.202.285-.263.408-.408zm8.375 0h2.306c.14.163.356.215.44.442v2.278c-.077.066-.073.155-.135.238-.08.056-.158.113-.237.17-.763.058-1.888.103-2.543-.068-.077-.115-.197-.225-.238-.374v-2.21c.071-.252.27-.303.407-.476zm-16.784 8.43c.819-.014 2.64-.24 2.712.477.079.124.034.459.034.646 0 .553.006 1.165-.034 1.665a4.562 4.562 0 0 0-.373.34c-.723.009-2.426.158-2.678-.272-.1-.169-.068-.484-.068-.747v-1.7c.065-.055.018-.06.068-.136.074-.117.24-.176.339-.272zm8.375 0c.826-.006 1.882-.074 2.543.103.286.444.203 1.177.203 1.904 0 .2.052.578-.033.714-.159.597-1.237.407-1.967.407-.334 0-.717.036-.916-.102-.331-.23-.215-2.023-.203-2.651.07-.056.048-.095.102-.17.064-.09.201-.116.27-.204zm8.41 0h1.728c.255 0 .59-.036.746.069.429.286.28 1.905.272 2.652-.071.056-.048.093-.102.17-.072.101-.216.15-.305.237-.82.015-2.64.24-2.713-.475-.078-.125-.034-.46-.034-.646 0-.553-.005-1.166.034-1.666.12-.091.263-.232.373-.34zm-16.718 8.397c.8-.006 1.805-.064 2.442.103.333.5.237 1.093.237 1.903 0 .258.043.626-.068.782-.18.57-1.864.385-2.644.374-.14-.163-.356-.214-.441-.442v-2.312c.1-.077.135-.235.237-.305.074-.052.172-.05.237-.103zm8.41 0c.762-.002 1.598-.016 2.305.034.09.12.232.264.34.374v1.734c0 .256.036.59-.068.748-.285.43-1.901.28-2.645.272-.056-.071-.094-.048-.17-.102-.102-.073-.15-.217-.237-.306v-2.346c.076-.229.296-.277.475-.408zm8.375 0c.8-.006 1.801-.063 2.441.103.065.101.196.228.238.34v2.277c-.16.138-.22.359-.441.442h-2.272c-.113-.128-.273-.122-.34-.306-.13-.144-.1-.438-.1-.714 0-.597-.01-1.258.033-1.802.082-.061.121-.182.204-.237.074-.052.171-.049.237-.103z" id="a"/></defs><g transform="translate(-15 -16)" fill="none" fill-rule="evenodd"><use fill="#727272" xlink:href="#a"/><use fill="#D8C58D" xlink:href="#a"/></g></svg>