<svg xmlns="http://www.w3.org/2000/svg" xmlns:xlink="http://www.w3.org/1999/xlink"><defs>
        <path d="M15.46 16.991h1.662c.26 0 .582-.033.746.068.473.29.365 2.24.203 2.856-.087.058-.17.165-.27.204-.425.16-2.18.026-2.544-.068-.066-.102-.2-.222-.237-.34v-2.278c.087-.227.3-.279.44-.442zm8.376 0h2.306c.056.07.093.048.17.102.101.073.15.217.236.306.016.821.24 2.647-.474 2.72-.124.078-.458.034-.644.034-.552 0-1.163.005-1.662-.034a4.395 4.395 0 0 0-.34-.374v-2.346c.068-.202.285-.263.408-.408zm8.375 0h2.306c.14.163.356.215.44.442v2.278c-.077.066-.073.155-.135.238-.08.056-.158.113-.237.17-.763.058-1.888.103-2.543-.068-.077-.115-.197-.225-.238-.374v-2.21c.071-.252.27-.303.407-.476zm-16.784 8.43c.819-.014 2.64-.24 2.712.477.079.124.034.459.034.646 0 .553.006 1.165-.034 1.665-.119.091-.263.232-.373.34-.723.009-2.426.158-2.678-.272-.1-.169-.068-.484-.068-.747v-1.7c.065-.055.018-.06.068-.136.074-.117.24-.176.339-.272zm8.375 0c.826-.006 1.882-.074 2.543.103.286.444.203 1.177.203 1.904 0 .2.052.578-.033.714-.159.597-1.237.407-1.967.407-.334 0-.717.036-.916-.102-.331-.23-.215-2.023-.203-2.651.07-.056.048-.095.102-.17.064-.09.201-.116.27-.204zm8.41 0h1.728c.255 0 .59-.036.746.069.429.286.28 1.905.272 2.652-.071.056-.048.093-.102.17-.072.101-.216.15-.305.237-.82.015-2.64.24-2.713-.475-.078-.125-.034-.46-.034-.646 0-.553-.005-1.166.034-1.666.12-.091.263-.232.373-.34zm-16.718 8.397c.8-.006 1.805-.064 2.442.103.333.5.237 1.093.237 1.903 0 .258.043.626-.068.782-.18.57-1.864.385-2.644.374-.14-.163-.356-.214-.441-.442v-2.312c.1-.077.135-.235.237-.305.074-.052.172-.05.237-.103zm8.41 0c.762-.002 1.598-.016 2.305.034.09.12.232.264.34.374v1.734c0 .256.036.59-.068.748-.285.43-1.901.28-2.645.272-.056-.071-.094-.048-.17-.102-.102-.073-.15-.217-.237-.306v-2.346c.076-.229.296-.277.475-.408zm8.375 0c.8-.006 1.801-.063 2.441.103.065.101.196.228.238.34v2.277c-.16.138-.22.359-.441.442h-2.272c-.113-.128-.273-.122-.34-.306-.13-.144-.1-.438-.1-.714 0-.597-.01-1.258.033-1.802.082-.061.121-.182.204-.237.074-.052.171-.049.237-.103z" id="a"/>
    </defs><symbol id="arrow">
    <path d="M.01 3.296h18.387c-.886-1.3-1.327-2.147-1.373-3.302 2.015 1.992 4.635 3.03 7.8 4.003-3.165.935-5.669 2.076-7.8 4.007.136-1.256.504-2.014 1.4-3.396H.01V3.296z" fill-rule="evenodd"/>
</symbol><symbol id="menu">
    
    <g transform="translate(-15 -16)" fill-rule="evenodd">
        <use xlink:href="#a"/>
        <use xlink:href="#a"/>
    </g>
</symbol><symbol id="question-mark">
    <text transform="translate(-98 -130)" fill-rule="evenodd" font-family="LastResort, .LastResort" font-size="12">
        <tspan x="97.115" y="122">&#xF005;</tspan>
    </text>
</symbol><symbol id="search">
    <path d="M401.625 392.062l-114.75-114.75c28.688-28.688 47.812-70.763 47.812-114.75C334.688 72.675 262.013 0 172.125 0S9.562 72.675 9.562 162.562s72.675 162.562 162.562 162.562c34.425 0 66.938-11.475 93.713-30.6L382.5 411.188c5.737 5.737 13.388 5.737 19.125 0s5.737-13.388 0-19.126zM172.125 306c-78.413 0-143.438-65.025-143.438-143.438 0-78.413 65.025-143.438 143.438-143.438 78.412 0 143.438 65.025 143.438 143.438C315.562 240.975 250.537 306 172.125 306z"/>
</symbol><symbol id="shopping-bag" viewBox="0 0 512 512">
    <path d="M500.6 459.3L455.2 44.4c-2.1-18.8-19-33.4-38-33.4H94.7c-20 0-35.8 14.6-38 33.4L11.4 459.3c-3.5 23.3 14.2 41.7 38 41.7h413.2c22.1 0 41.5-18.7 38-41.7zm-38 20.8H49.4c-9 0-18.9-6.2-16.9-18.8L77.8 47.5c1.1-9.4 8.4-15.6 16.9-15.6v-1h322.6c8.4 0 15.8 7.3 16.9 15.6l45.3 414.9c1.8 9.2-4.7 18.7-16.9 18.7z"/>
    <path d="M348.7 70.3c-5.9 0-10.6 4.7-10.6 10.5v101.6c0 44.8-36.8 81.2-82.1 81.2s-82.1-36.4-82.1-81.2V81.1c0-5.8-4.8-10.5-10.6-10.5-5.9 0-10.6 4.7-10.6 10.5v101.3c0 56.4 46.4 102.2 103.4 102.2s103.4-45.9 103.4-102.2V80.9c-.1-5.9-4.9-10.6-10.8-10.6z"/>
</symbol></svg>