<svg xmlns="http://www.w3.org/2000/svg" xmlns:xlink="http://www.w3.org/1999/xlink"><defs>
        <path d="M15.46 16.991h1.662c.26 0 .582-.033.746.068.473.29.365 2.24.203 2.856-.087.058-.17.165-.27.204-.425.16-2.18.026-2.544-.068-.066-.102-.2-.222-.237-.34v-2.278c.087-.227.3-.279.44-.442zm8.376 0h2.306c.056.07.093.048.17.102.101.073.15.217.236.306.016.821.24 2.647-.474 2.72-.124.078-.458.034-.644.034-.552 0-1.163.005-1.662-.034a4.395 4.395 0 0 0-.34-.374v-2.346c.068-.202.285-.263.408-.408zm8.375 0h2.306c.14.163.356.215.44.442v2.278c-.077.066-.073.155-.135.238-.08.056-.158.113-.237.17-.763.058-1.888.103-2.543-.068-.077-.115-.197-.225-.238-.374v-2.21c.071-.252.27-.303.407-.476zm-16.784 8.43c.819-.014 2.64-.24 2.712.477.079.124.034.459.034.646 0 .553.006 1.165-.034 1.665a4.562 4.562 0 0 0-.373.34c-.723.009-2.426.158-2.678-.272-.1-.169-.068-.484-.068-.747v-1.7c.065-.055.018-.06.068-.136.074-.117.24-.176.339-.272zm8.375 0c.826-.006 1.882-.074 2.543.103.286.444.203 1.177.203 1.904 0 .2.052.578-.033.714-.159.597-1.237.407-1.967.407-.334 0-.717.036-.916-.102-.331-.23-.215-2.023-.203-2.651.07-.056.048-.095.102-.17.064-.09.201-.116.27-.204zm8.41 0h1.728c.255 0 .59-.036.746.069.429.286.28 1.905.272 2.652-.071.056-.048.093-.102.17-.072.101-.216.15-.305.237-.82.015-2.64.24-2.713-.475-.078-.125-.034-.46-.034-.646 0-.553-.005-1.166.034-1.666.12-.091.263-.232.373-.34zm-16.718 8.397c.8-.006 1.805-.064 2.442.103.333.5.237 1.093.237 1.903 0 .258.043.626-.068.782-.18.57-1.864.385-2.644.374-.14-.163-.356-.214-.441-.442v-2.312c.1-.077.135-.235.237-.305.074-.052.172-.05.237-.103zm8.41 0c.762-.002 1.598-.016 2.305.034.09.12.232.264.34.374v1.734c0 .256.036.59-.068.748-.285.43-1.901.28-2.645.272-.056-.071-.094-.048-.17-.102-.102-.073-.15-.217-.237-.306v-2.346c.076-.229.296-.277.475-.408zm8.375 0c.8-.006 1.801-.063 2.441.103.065.101.196.228.238.34v2.277c-.16.138-.22.359-.441.442h-2.272c-.113-.128-.273-.122-.34-.306-.13-.144-.1-.438-.1-.714 0-.597-.01-1.258.033-1.802.082-.061.121-.182.204-.237.074-.052.171-.049.237-.103z" id="a"/>
    </defs><symbol id="arrow-back">
    <path d="M24.802 3.297H6.416c.886-1.3 1.327-2.147 1.372-3.303C5.773 1.986 3.153 3.024-.012 4c3.165.934 5.67 2.074 7.8 4.005-.136-1.255-.503-2.014-1.4-3.395h18.414V3.297z" fill-rule="evenodd"/>
</symbol><symbol id="arrow-next">
    <path d="M.01 3.296h18.387c-.886-1.3-1.327-2.147-1.373-3.302 2.015 1.992 4.635 3.03 7.8 4.003-3.165.935-5.669 2.076-7.8 4.007.136-1.256.504-2.014 1.4-3.396H.01V3.296z" fill-rule="evenodd"/>
</symbol><symbol id="fb" viewBox="0 0 512 512">
    <path d="M308.3 508.5c-2.5.1-4.1.3-5.7.3-34.2 0-68.3-.1-102.5.1-4.8 0-6.1-1.3-6.1-6.1.1-79.6.1-159.3.1-238.9V257H139v-85h5.4c15 0 30-.1 45 .1 3.8 0 4.8-1.1 4.8-4.8-.2-22.3-.2-44.7 0-67 .1-15.6 2.6-30.8 9.8-44.9 10.3-19.9 26.6-32.8 47.2-40.8 16.8-6.6 34.5-9 52.3-9.3 29-.4 58-.2 87-.3 2.7 0 4.9-.1 4.9 3.7-.1 27.5-.1 55-.1 82.5 0 .3-.1.6-.5 1.9h-5.5c-18 0-36-.1-54 0-10.4 0-18.8 4.2-24.1 13.3-1.6 2.7-2.6 6.2-2.6 9.4-.3 17 0 34-.2 51 0 4 1.2 5.1 5.1 5.1 25-.2 50-.1 75-.1h7.3c-3.5 28.6-6.9 56.6-10.4 84.9h-77.1v251.8z"/>
</symbol><symbol id="instagram" viewBox="0 0 512 512">
    <path d="M352 0H160C71.648 0 0 71.648 0 160v192c0 88.352 71.648 160 160 160h192c88.352 0 160-71.648 160-160V160C512 71.648 440.352 0 352 0zm112 352c0 61.76-50.24 112-112 112H160c-61.76 0-112-50.24-112-112V160C48 98.24 98.24 48 160 48h192c61.76 0 112 50.24 112 112v192z"/>
    <path d="M256 128c-70.688 0-128 57.312-128 128s57.312 128 128 128 128-57.312 128-128-57.312-128-128-128zm0 208c-44.096 0-80-35.904-80-80 0-44.128 35.904-80 80-80s80 35.872 80 80c0 44.096-35.904 80-80 80z"/>
    <circle cx="393.6" cy="118.4" r="17.056"/>
</symbol><symbol id="menu">
    
    <g transform="translate(-15 -16)" fill-rule="evenodd">
        <use xlink:href="#a"/>
        <use xlink:href="#a"/>
    </g>
</symbol><symbol id="phone">
    <path d="M340.273 275.083l-53.755-53.761c-10.707-10.664-28.438-10.34-39.518.744l-27.082 27.076a792.327 792.327 0 0 1-5.344-2.973c-17.102-9.476-40.509-22.464-65.14-47.113-24.704-24.701-37.704-48.144-47.209-65.257-1.003-1.813-1.964-3.561-2.913-5.221l18.176-18.149 8.936-8.947c11.097-11.1 11.403-28.826.721-39.521L73.39 8.194c-10.682-10.68-28.421-10.356-39.518.744l-15.15 15.237.414.411c-5.08 6.482-9.325 13.958-12.484 22.02C3.74 54.28 1.927 61.603 1.098 68.941-6 127.785 20.89 181.564 93.866 254.541c100.875 100.868 182.167 93.248 185.674 92.876 7.638-.913 14.958-2.738 22.397-5.627 7.992-3.122 15.463-7.361 21.941-12.43l.331.294 15.348-15.029c11.074-11.098 11.393-28.83.716-39.542z"/>
</symbol><symbol id="search">
    <path d="M401.625 392.062l-114.75-114.75c28.688-28.688 47.812-70.763 47.812-114.75C334.688 72.675 262.013 0 172.125 0S9.562 72.675 9.562 162.562s72.675 162.562 162.562 162.562c34.425 0 66.938-11.475 93.713-30.6L382.5 411.188c5.737 5.737 13.388 5.737 19.125 0s5.737-13.388 0-19.126zM172.125 306c-78.413 0-143.438-65.025-143.438-143.438 0-78.413 65.025-143.438 143.438-143.438 78.412 0 143.438 65.025 143.438 143.438C315.562 240.975 250.537 306 172.125 306z"/>
</symbol><symbol id="shopping-bag" viewBox="0 0 512 512">
    <path d="M500.6 459.3L455.2 44.4c-2.1-18.8-19-33.4-38-33.4H94.7c-20 0-35.8 14.6-38 33.4L11.4 459.3c-3.5 23.3 14.2 41.7 38 41.7h413.2c22.1 0 41.5-18.7 38-41.7zm-38 20.8H49.4c-9 0-18.9-6.2-16.9-18.8L77.8 47.5c1.1-9.4 8.4-15.6 16.9-15.6v-1h322.6c8.4 0 15.8 7.3 16.9 15.6l45.3 414.9c1.8 9.2-4.7 18.7-16.9 18.7z"/>
    <path d="M348.7 70.3c-5.9 0-10.6 4.7-10.6 10.5v101.6c0 44.8-36.8 81.2-82.1 81.2s-82.1-36.4-82.1-81.2V81.1c0-5.8-4.8-10.5-10.6-10.5-5.9 0-10.6 4.7-10.6 10.5v101.3c0 56.4 46.4 102.2 103.4 102.2s103.4-45.9 103.4-102.2V80.9c-.1-5.9-4.9-10.6-10.8-10.6z"/>
</symbol><symbol id="star" viewBox="0 0 19.481 19.481">
    <path d="M10.201.758l2.478 5.865 6.344.545a.5.5 0 0 1 .285.876l-4.812 4.169 1.442 6.202a.5.5 0 0 1-.745.541l-5.452-3.288-5.452 3.288a.5.5 0 0 1-.745-.541l1.442-6.202-4.813-4.17a.5.5 0 0 1 .285-.876l6.344-.545L9.28.758a.5.5 0 0 1 .921 0z"/>
</symbol><symbol id="vk" viewBox="0 0 232.363 232.363">
    <path d="M228.439 56.691c3.621.779 4.813 5.088 3.254 8.021-1.054 2.063-2.246 4.079-3.392 6.096-.092 1.421-.688 2.75-1.971 3.529-10.13 17.83-21.726 34.697-34.926 50.51-.046.046-.137.092-.183.183 15.217 10.496 51.61 37.309 33.826 52.389-9.304 7.929-36.255 6.6-46.706 2.108-6.004-2.567-11.459-7.104-16.592-11.138-8.938-7.013-11.459-6.6-19.48.871-10.313 9.625-16.042 15.721-31.259 13.979-17.875-2.063-35.063-12.009-48.722-23.192C33.596 136.443 7.791 96.796.091 60.266c-.596-2.842 1.833-5.042 4.171-5.088.138-.046.183-.092.321-.138 13.934-2.475 29.563-3.071 43.634-1.513a5.458 5.458 0 0 1 3.117 1.375c.367.138.779.367 1.1.779C63.618 68.837 68.568 86.208 80.21 98.996c5.638 6.188 7.471 5.179 8.067-3.346.275-3.667.275-7.333.092-11-.55-9.579-4.034-17.967-5.5-27.272a5.092 5.092 0 0 1 .642-3.529c.321-1.971 1.925-3.85 4.263-4.171 13.613-1.788 28.005-.137 41.801-.55 2.017-.55 3.621.229 4.675 1.604.963.275 1.833.962 2.108 2.2 2.017 8.525 1.833 16.684 1.696 25.392l-.275 12.284c-.092 2.338-.092 4.675-.092 7.013-.917 4.309.779 5.959 5.042 4.95 7.196.779 9.167-5.179 12.696-10.679 2.108-3.254 4.125-6.6 6.05-9.992 4.492-7.975 7.838-16.363 12.009-24.476.733-1.513 2.017-2.2 3.346-2.383.412-.229.917-.367 1.421-.413 16.408-.367 34.055-1.375 50.188 2.063z"/>
</symbol></svg>