<svg xmlns="http://www.w3.org/2000/svg" viewBox="0 0 232.363 232.363"><path d="M228.439 56.691c3.621.779 4.813 5.088 3.254 8.021-1.054 2.063-2.246 4.079-3.392 6.096-.092 1.421-.688 2.75-1.971 3.529-10.13 17.83-21.726 34.697-34.926 50.51-.046.046-.137.092-.183.183 15.217 10.496 51.61 37.309 33.826 52.389-9.304 7.929-36.255 6.6-46.706 2.108-6.004-2.567-11.459-7.104-16.592-11.138-8.938-7.013-11.459-6.6-19.48.871-10.313 9.625-16.042 15.721-31.259 13.979-17.875-2.063-35.063-12.009-48.722-23.192C33.596 136.443 7.791 96.796.091 60.266c-.596-2.842 1.833-5.042 4.171-5.088.138-.046.183-.092.321-.138 13.934-2.475 29.563-3.071 43.634-1.513a5.458 5.458 0 0 1 3.117 1.375c.367.138.779.367 1.1.779C63.618 68.837 68.568 86.208 80.21 98.996c5.638 6.188 7.471 5.179 8.067-3.346.275-3.667.275-7.333.092-11-.55-9.579-4.034-17.967-5.5-27.272a5.092 5.092 0 0 1 .642-3.529c.321-1.971 1.925-3.85 4.263-4.171 13.613-1.788 28.005-.137 41.801-.55 2.017-.55 3.621.229 4.675 1.604.963.275 1.833.962 2.108 2.2 2.017 8.525 1.833 16.684 1.696 25.392l-.275 12.284c-.092 2.338-.092 4.675-.092 7.013-.917 4.309.779 5.959 5.042 4.95 7.196.779 9.167-5.179 12.696-10.679 2.108-3.254 4.125-6.6 6.05-9.992 4.492-7.975 7.838-16.363 12.009-24.476.733-1.513 2.017-2.2 3.346-2.383.412-.229.917-.367 1.421-.413 16.408-.367 34.055-1.375 50.188 2.063z"/></svg>