<svg height="682pt" viewBox="-21 -171 682.669 682" width="682pt" xmlns="http://www.w3.org/2000/svg"><path d="M512.371 182.71L639.617-9.663H444.473L440.828 4.45c-9.351 36.241-26.898 85.36-57.39 113.55-3.77 3.48-7.34 6.281-10.626 8.52V-9.664H202.848V27.96h15.879v85.277C199.672 96.48 175.73 64.504 169.46 7.105l-1.828-16.77H0l5.758 23.321c20.695 83.867 51.746 152.57 92.293 204.207 33.101 42.157 72.523 73.11 117.172 91.992 39.875 16.864 76.586 21 103.004 21 24.296 0 39.878-3.5 41.187-3.804l14.328-3.34.742-51.688 63.825 55.524h201.695zm0 0"/></svg>