<?xml version="1.0" encoding="UTF-8"?>
<svg width="20px" height="22px" viewBox="0 0 20 22" version="1.1" xmlns="http://www.w3.org/2000/svg" xmlns:xlink="http://www.w3.org/1999/xlink">
    <!-- Generator: Sketch 55.2 (78181) - https://sketchapp.com -->
    <title>Combined shape 75</title>
    <desc>Created with Sketch.</desc>
    <defs>
        <path d="M15.460576,16.991112 L17.122048,16.991112 C17.38204,16.991112 17.704024,16.958352 17.86804,17.059176 C18.34132,17.34948 18.233392,19.298664 18.071488,19.914576 C17.983768,19.973016 17.90164,20.080272 17.800216,20.118816 C17.375872,20.27808 15.620224,20.145144 15.257128,20.050728 C15.190888,19.948608 15.057568,19.828512 15.019768,19.710984 L15.019768,18.147144 L15.019768,17.432952 C15.106504,17.206248 15.319672,17.15424 15.460576,16.991112 Z M23.835832,16.991112 L26.141584,16.991112 C26.197768,17.061744 26.235472,17.03928 26.31112,17.093208 C26.413144,17.165784 26.461432,17.309664 26.54848,17.39892 C26.563528,18.220344 26.788384,20.04624 26.07376,20.118816 C25.94992,20.197176 25.615648,20.152848 25.429504,20.152848 C24.87784,20.152848 24.266608,20.157984 23.768032,20.118816 C23.677528,19.999344 23.536768,19.85484 23.428936,19.74504 L23.428936,17.39892 C23.495824,17.196624 23.712784,17.135616 23.835832,16.991112 Z M32.211112,16.991112 L34.51684,16.991112 C34.65724,17.153592 34.872568,17.2056 34.957648,17.432952 L34.957648,19.710984 C34.880344,19.776504 34.884256,19.866408 34.822024,19.948608 C34.74292,20.005128 34.663768,20.062296 34.584664,20.118816 C33.822136,20.176608 32.696848,20.222208 32.041576,20.050728 C31.965232,19.935768 31.845136,19.825944 31.804216,19.676952 L31.804216,17.467008 C31.875208,17.2146 32.07376,17.163864 32.211112,16.991112 Z M15.426664,25.421784 C16.245856,25.407024 18.067288,25.181592 18.139312,25.89768 C18.217576,26.02164 18.1732,26.356896 18.173224,26.543784 C18.173248,27.096744 18.178792,27.70944 18.139312,28.20912 C18.020032,28.300296 17.875984,28.44096 17.766328,28.549488 C17.042848,28.55784 15.34024,28.70748 15.087592,28.277184 C14.988208,28.108272 15.019768,27.792936 15.019768,27.529608 L15.019768,25.829616 C15.084736,25.775016 15.038176,25.770528 15.087592,25.694088 C15.162136,25.577208 15.328672,25.51812 15.426664,25.421784 Z M23.801944,25.421784 C24.627712,25.415376 25.683664,25.34664 26.345032,25.523904 C26.630992,25.968336 26.54848,26.701128 26.54848,27.427512 C26.54848,27.628536 26.600368,28.005528 26.514568,28.14168 C26.356384,28.738968 25.278256,28.549488 24.547912,28.549488 C24.213616,28.549488 23.830648,28.585464 23.632384,28.447392 C23.30104,28.216176 23.417272,26.423688 23.428936,25.79556 C23.49988,25.739688 23.476624,25.70052 23.530672,25.626024 C23.595472,25.536096 23.731984,25.510416 23.801944,25.421784 Z M32.211112,25.421784 L33.940408,25.421784 C34.195264,25.421784 34.5292,25.385184 34.6864,25.489872 C35.114944,25.775664 34.96636,27.3954 34.957648,28.14168 C34.887016,28.197552 34.909552,28.235448 34.855912,28.311216 C34.783624,28.413336 34.63972,28.462152 34.550752,28.549488 C33.73156,28.564272 31.910128,28.789704 31.838104,28.073592 C31.75984,27.949008 31.804216,27.6144 31.804216,27.427512 C31.804192,26.874528 31.798624,26.261832 31.838104,25.761528 C31.957384,25.670976 32.101432,25.529688 32.211112,25.421784 Z M15.494488,33.818424 C16.293208,33.812016 17.298976,33.753576 17.93584,33.920544 C18.269128,34.420224 18.173248,35.014296 18.173224,35.824152 C18.1732,36.081696 18.215704,36.450336 18.1054,36.60576 C17.924464,37.176072 16.241008,36.991104 15.460576,36.980184 C15.320176,36.817056 15.104872,36.765672 15.019768,36.53832 L15.019768,34.226256 C15.11992,34.148544 15.15544,33.9912 15.257128,33.920544 C15.331,33.86916 15.428752,33.871752 15.494488,33.818424 Z M23.903656,33.818424 C24.665536,33.815856 25.50232,33.801744 26.209384,33.85248 C26.299888,33.971928 26.440648,34.116432 26.54848,34.226256 L26.54848,35.960304 C26.548456,36.215928 26.585176,36.550512 26.480656,36.70788 C26.195704,37.137528 24.579952,36.988536 23.835832,36.980184 C23.779648,36.908904 23.741968,36.932016 23.666296,36.878064 C23.564272,36.805488 23.515984,36.660984 23.428936,36.571728 L23.428936,34.226256 C23.504824,33.996984 23.725168,33.94944 23.903656,33.818424 Z M32.278912,33.818424 C33.079696,33.812016 34.080328,33.754848 34.720288,33.920544 C34.784632,34.022016 34.915888,34.149192 34.957648,34.260288 L34.957648,36.53832 C34.797904,36.676392 34.73824,36.896688 34.51684,36.980184 L32.245,36.980184 C32.132392,36.852384 31.97164,36.858168 31.905928,36.673824 C31.77592,36.529968 31.80424,36.235824 31.804216,35.960304 C31.804144,35.363016 31.795456,34.702152 31.838104,34.158168 C31.919872,34.096536 31.9594,33.976416 32.041576,33.920544 C32.116192,33.86916 32.213056,33.872376 32.278912,33.818424 Z" id="path-1"></path>
    </defs>
    <g id="Page-1" stroke="none" stroke-width="1" fill="none" fill-rule="evenodd">
        <g id="Artboard" transform="translate(-15.000000, -16.000000)">
            <g id="b1" transform="translate(-320.000000, 0.000000)">
                <g id="нав" transform="translate(320.000000, 0.000000)">
                    <g id="Combined-shape-75">
                        <use fill="#727272" xlink:href="#path-1"></use>
                        <use fill="#D8C58D" xlink:href="#path-1"></use>
                    </g>
                </g>
            </g>
        </g>
    </g>
</svg>