<svg xmlns="http://www.w3.org/2000/svg" width="415.49" height="415.49"><path d="M401.625 392.062l-114.75-114.75c28.688-28.688 47.812-70.763 47.812-114.75C334.688 72.675 262.013 0 172.125 0S9.562 72.675 9.562 162.562s72.675 162.562 162.562 162.562c34.425 0 66.938-11.475 93.713-30.6L382.5 411.188c5.737 5.737 13.388 5.737 19.125 0s5.737-13.388 0-19.126zM172.125 306c-78.413 0-143.438-65.025-143.438-143.438 0-78.413 65.025-143.438 143.438-143.438 78.412 0 143.438 65.025 143.438 143.438C315.562 240.975 250.537 306 172.125 306z"/></svg>