<svg xmlns="http://www.w3.org/2000/svg" viewBox="0 0 512 512"><path d="M500.6 459.3L455.2 44.4c-2.1-18.8-19-33.4-38-33.4H94.7c-20 0-35.8 14.6-38 33.4L11.4 459.3c-3.5 23.3 14.2 41.7 38 41.7h413.2c22.1 0 41.5-18.7 38-41.7zm-38 20.8H49.4c-9 0-18.9-6.2-16.9-18.8L77.8 47.5c1.1-9.4 8.4-15.6 16.9-15.6v-1h322.6c8.4 0 15.8 7.3 16.9 15.6l45.3 414.9c1.8 9.2-4.7 18.7-16.9 18.7z"/><path d="M348.7 70.3c-5.9 0-10.6 4.7-10.6 10.5v101.6c0 44.8-36.8 81.2-82.1 81.2s-82.1-36.4-82.1-81.2V81.1c0-5.8-4.8-10.5-10.6-10.5-5.9 0-10.6 4.7-10.6 10.5v101.3c0 56.4 46.4 102.2 103.4 102.2s103.4-45.9 103.4-102.2V80.9c-.1-5.9-4.9-10.6-10.8-10.6z"/></svg>